PathFileType	4	(X/Y/Z)	SUBJ89_3_walk_RCNL2025.trc
DataRate	CameraRate	NumFrames	NumMarkers	Units	OrigDataRate	OrigDataStartFrame	OrigNumFrames
100	100	13	25	mm	100	199	227
Frame#	Time	R_Shoulder			L_Shoulder			C7			J_Notch			R_Elbow			L_Elbow			R_Wrist			L_Wrist			R_Asis			L_Asis			Sacral			Thoracic			Sternum			R_Thigh_Lateral			R_Knee_Lateral			R_Shank_Lateral			R_Ankle_Lateral			R_Heel			R_Toe			L_Thigh_Lateral			L_Knee_Lateral			L_Shank_Lateral			L_Ankle_Lateral			L_Heel			L_Toe		
		X1	Y1	Z1	X2	Y2	Z2	X3	Y3	Z3	X4	Y4	Z4	X5	Y5	Z5	X6	Y6	Z6	X7	Y7	Z7	X8	Y8	Z8	X9	Y9	Z9	X10	Y10	Z10	X11	Y11	Z11	X12	Y12	Z12	X13	Y13	Z13	X14	Y14	Z14	X15	Y15	Z15	X16	Y16	Z16	X17	Y17	Z17	X18	Y18	Z18	X19	Y19	Z19	X20	Y20	Z20	X21	Y21	Z21	X22	Y22	Z22	X23	Y23	Z23	X24	Y24	Z24	X25	Y25	Z25
199	1.98000000	1802.556396	1368.068726	9.671049	1782.600342	1401.615845	-398.834290	1732.481445	1479.041504	-184.940918	1845.260132	1349.198364	-198.884796	1670.875244	1056.774536	40.981789	1829.285278	1068.334106	-464.599976	1698.238647	787.666840	54.825314	2019.714661	884.703949	-411.220718	1838.055176	963.348511	-96.416908	1830.686646	951.292480	-335.162140	1666.586914	1014.012512	-198.575912	1641.742188	1300.366821	-196.039017	1875.880249	1202.588501	-217.017105	1896.064087	598.869385	-26.492746	1935.756592	490.781647	-83.299286	1946.739990	266.841217	-40.927349	1959.936646	60.720333	-111.571640	1924.403931	49.883343	-159.190063	2117.526855	34.044731	-131.760284	1717.696167	527.977844	-414.819611	1684.572266	447.320343	-341.501221	1500.719727	298.143066	-377.270752	1365.392334	155.355515	-304.477051	1345.995483	186.453674	-255.554230	1447.132812	30.783083	-285.444061
200	1.99000000	1818.352295	1368.999268	11.297669	1797.373169	1403.846313	-397.020874	1747.544800	1480.598877	-182.661499	1860.459229	1350.962891	-197.268982	1687.268433	1057.421021	41.947926	1841.365601	1069.679932	-461.779785	1714.518188	788.345825	55.546473	2032.340759	885.949432	-410.265335	1852.960327	966.269836	-94.830162	1846.407593	952.037842	-333.352661	1681.765259	1015.621216	-198.335922	1656.949707	1301.784302	-194.654404	1891.313232	1204.426636	-215.840057	1909.564697	600.543701	-25.670444	1947.893433	491.705322	-82.875687	1955.276123	267.461121	-40.597969	1961.384644	60.929852	-111.954842	1924.939331	50.620163	-159.117126	2119.300537	31.345823	-132.610153	1741.210205	527.618835	-415.332306	1709.784180	446.672913	-342.755219	1520.648560	304.186859	-376.785736	1382.532227	164.601028	-303.702271	1365.997314	196.098297	-253.778244	1455.222534	33.138050	-286.675262
201	2.00000000	1834.113281	1370.275757	12.759938	1811.965332	1406.271484	-395.387268	1762.487671	1482.396484	-180.556137	1875.522217	1352.953735	-195.826965	1703.746216	1058.366577	42.942612	1852.878662	1071.148438	-459.033508	1731.364929	789.361176	56.213125	2044.334351	887.215332	-409.462494	1867.687988	969.243835	-93.238174	1861.911377	953.141602	-331.574066	1696.770020	1017.431763	-198.002884	1672.015869	1303.457764	-193.335861	1906.530273	1206.460327	-214.807068	1921.916138	601.929443	-24.781120	1958.812256	492.403168	-82.390434	1962.557007	267.919739	-40.255398	1962.501953	61.218346	-112.319855	1925.334229	51.296223	-159.056213	2120.716309	29.526196	-133.224472	1765.022827	527.651184	-415.915161	1735.733154	446.438599	-343.986481	1542.038208	310.148956	-376.131134	1401.677002	173.467987	-302.569000	1387.855713	205.046066	-251.608688	1466.261597	36.213562	-288.337585
202	2.01000000	1849.805054	1371.868042	14.061061	1826.351562	1408.841553	-393.941956	1777.298218	1484.402222	-178.633530	1890.434570	1355.138428	-194.561920	1720.289429	1059.572510	43.961945	1863.874146	1072.718506	-456.394257	1748.768066	790.677124	56.823500	2055.728882	888.486084	-408.805862	1882.253052	972.187317	-91.673752	1877.182373	954.600281	-329.876129	1711.602295	1019.419678	-197.551071	1686.931030	1305.356201	-192.068451	1921.520386	1208.655884	-213.914185	1933.076050	603.005981	-23.858570	1968.485718	492.857300	-81.846313	1968.568726	268.188263	-39.898197	1963.322266	61.523285	-112.654930	1925.613159	51.881447	-159.002716	2121.801270	28.408606	-133.642059	1788.915527	528.126282	-416.525665	1762.229126	446.688599	-345.146118	1564.793701	315.888763	-375.315399	1422.723633	181.725128	-301.109680	1411.357056	213.070206	-249.118195	1480.585693	39.941708	-290.433502
203	2.02000000	1865.395874	1373.742554	15.214053	1840.515503	1411.511475	-392.685211	1791.973755	1486.584229	-176.892059	1905.191406	1357.486328	-193.466080	1736.881714	1060.997192	45.001637	1874.412231	1074.374390	-453.892487	1766.710327	792.257233	57.375158	2066.556274	889.745514	-408.287491	1896.671997	975.034485	-90.167023	1892.218994	956.402405	-328.298828	1726.269409	1021.563354	-196.968277	1701.693848	1307.446777	-190.833893	1936.287964	1210.984253	-213.147614	1943.083740	603.794373	-22.932076	1976.950928	493.080231	-81.253304	1973.393433	268.271667	-39.519291	1963.885254	61.802174	-112.945862	1925.794800	52.366409	-158.945251	2122.589844	27.812588	-133.902328	1812.712524	529.086487	-417.118011	1789.095581	447.481995	-346.192688	1588.792236	321.283875	-374.355682	1445.544556	189.150162	-299.380249	1436.284180	219.977814	-246.399124	1498.388062	44.169006	-292.905579
204	2.03000000	1880.858643	1375.863403	16.238932	1854.452881	1414.243652	-391.608643	1806.518433	1488.909180	-175.321426	1919.796997	1359.967407	-192.522873	1753.508911	1062.599243	46.057339	1884.559814	1076.107544	-451.555267	1785.168518	794.066650	57.865240	2076.845947	890.977783	-407.898514	1910.959717	977.738892	-88.740623	1907.031860	958.526245	-326.865906	1740.783447	1023.840820	-196.255600	1716.310181	1309.694214	-189.614212	1950.850586	1213.420288	-212.485992	1952.057617	604.347717	-22.026230	1984.301880	493.107422	-80.628944	1977.189209	268.200928	-39.113297	1964.235962	62.032585	-113.180901	1925.895874	52.757202	-158.871307	2123.124023	27.574337	-134.042206	1836.299561	530.559143	-417.648010	1816.178345	448.856964	-347.094238	1613.894409	326.229431	-373.280365	1470.001587	195.536987	-297.460083	1462.435669	225.616104	-243.562836	1519.705444	48.667671	-295.634247
205	2.04000000	1896.172729	1378.193359	17.159302	1868.172485	1417.006714	-390.695618	1820.941895	1491.340454	-173.904846	1934.263550	1362.550293	-191.709778	1770.159302	1064.338257	47.125168	1894.385498	1077.914673	-449.405609	1804.114746	796.073303	58.290716	2086.624390	892.167847	-407.630539	1925.128052	980.272705	-87.406219	1921.640869	960.938477	-325.581360	1755.158936	1026.226318	-195.425476	1730.791504	1312.059814	-188.394989	1965.235962	1215.939697	-211.903366	1960.177612	604.736572	-21.161781	1990.674316	492.987305	-79.996643	1980.159302	268.022430	-38.681515	1964.421875	62.208904	-113.354172	1925.932739	53.069496	-158.771606	2123.450439	27.558041	-134.094620	1859.629150	532.549988	-418.077179	1843.347534	450.823090	-347.828369	1639.955200	330.633453	-372.130005	1495.957764	200.703293	-295.447540	1489.636719	229.875061	-240.735611	1544.426880	53.160389	-298.447327
206	2.05000000	1911.326294	1380.692505	17.998928	1881.696167	1419.774414	-389.922943	1835.256226	1493.837036	-172.621857	1948.609131	1365.200073	-191.001770	1786.822510	1066.176025	48.202354	1903.955566	1079.795898	-447.462067	1823.517578	798.247803	58.648581	2095.917847	893.300140	-407.477356	1939.184204	982.622864	-86.163338	1936.071533	963.593872	-324.429230	1769.411865	1028.688232	-194.498962	1745.152710	1314.499512	-187.167480	1979.477295	1218.516602	-211.372314	1967.655396	605.033264	-20.356390	1996.228027	492.770844	-79.382339	1982.519165	267.787018	-38.233429	1964.490112	62.337410	-113.467117	1925.921753	53.323177	-158.642365	2123.617188	27.659956	-134.087708	1882.713013	535.038452	-418.375275	1870.496338	453.357147	-348.380463	1666.834106	334.411255	-370.955566	1523.284424	204.498123	-293.451233	1517.742920	232.686752	-238.050537	1572.323975	57.353100	-301.140167
207	2.06000000	1926.316772	1383.317871	18.778751	1895.057129	1422.521851	-389.263062	1849.474487	1496.352905	-171.450943	1962.854736	1367.877808	-190.374222	1803.489014	1068.075439	49.287846	1913.328979	1081.749023	-445.738220	1843.342773	800.562164	58.936050	2104.754272	894.356964	-407.436417	1953.131836	984.786133	-85.000725	1950.352051	966.435608	-323.377350	1783.556885	1031.188477	-193.502319	1759.410767	1316.965210	-185.929581	1993.609375	1221.121094	-210.866882	1974.701172	605.297974	-19.624668	2001.127930	492.503174	-78.810524	1984.466064	267.540833	-37.784946	1964.483398	62.431087	-113.527992	1925.878418	53.538242	-158.485962	2123.670166	27.807215	-134.044479	1905.604370	537.976501	-418.521637	1897.536499	456.403595	-348.741821	1694.402344	337.481964	-369.813782	1551.865112	206.808624	-291.579041	1546.641113	234.021469	-235.635956	1603.089478	60.968788	-303.502319
208	2.07000000	1941.151733	1386.021240	19.514793	1908.296387	1425.222534	-388.687469	1863.609375	1498.838623	-170.372147	1977.021606	1370.540161	-189.805313	1820.149780	1069.998535	50.382694	1922.555908	1083.766357	-444.242188	1863.555054	802.988586	59.150730	2113.166138	895.316193	-407.509659	1966.971069	986.763306	-83.899658	1964.509766	969.397095	-322.383820	1797.606201	1033.682495	-192.464066	1773.583130	1319.405273	-184.685333	2007.663696	1223.716919	-210.364960	1981.497925	605.569824	-18.977369	2005.531372	492.218170	-78.300545	1986.158447	267.319122	-37.354523	1964.438843	62.505188	-113.550064	1925.816895	53.732128	-158.310318	2123.649902	27.953451	-133.982620	1928.376099	541.291443	-418.505096	1924.394165	459.879822	-348.907776	1722.549561	339.768616	-368.760834	1581.598511	207.564835	-289.926544	1576.247314	233.881592	-233.602402	1636.378174	63.776367	-305.345917
209	2.08000000	1955.847290	1388.750000	20.217142	1921.460449	1427.845337	-388.169342	1877.672363	1501.242188	-169.369003	1991.129028	1373.140503	-189.277573	1836.796875	1071.905762	51.490124	1931.675903	1085.829956	-442.976013	1884.118591	805.497681	59.290831	2121.192139	896.149506	-407.703354	1980.700439	988.554382	-82.838127	1978.569458	972.404724	-321.404694	1811.569214	1036.121948	-191.412384	1787.687500	1321.766479	-183.443726	2021.666260	1226.261963	-209.849762	1988.185059	605.864502	-18.420143	2009.578369	491.936646	-77.863976	1987.707642	267.143555	-36.958652	1964.385986	62.574051	-113.548988	1925.750122	53.918427	-158.127396	2123.590576	28.072952	-133.914703	1951.101929	544.892944	-418.322937	1951.005249	463.684265	-348.876343	1751.187378	341.202332	-367.845428	1612.399536	206.741898	-288.567413	1606.505859	232.294586	-232.030869	1671.840332	65.610985	-306.530670
210	2.09000000	1970.425903	1391.446411	20.890068	1934.596680	1430.353394	-387.686188	1891.674072	1503.512085	-168.429733	2005.193237	1375.629761	-188.778351	1853.424194	1073.754883	52.615265	1940.719116	1087.910522	-441.935455	1904.997925	808.057800	59.355381	2128.876709	896.821442	-408.026932	1994.318604	990.155396	-81.794945	1992.552612	975.380737	-320.401642	1825.451660	1038.455811	-190.373413	1801.742310	1323.995850	-182.216873	2035.635254	1228.708496	-209.310547	1994.855835	606.176514	-17.952547	2013.388062	491.667084	-77.503494	1989.180908	267.022369	-36.608219	1964.347290	62.649223	-113.540169	1925.689941	54.106689	-157.951355	2123.518066	28.154652	-133.848648	1973.841797	548.682190	-417.978851	1977.313477	467.705872	-348.648010	1780.250000	341.728729	-367.102966	1644.200073	204.359863	-287.547424	1637.387329	229.306503	-230.964432	1709.145630	66.384621	-306.981476
211	2.10000000	1984.913574	1394.050049	21.533045	1947.750610	1432.703857	-387.221466	1905.623779	1505.599121	-167.547607	2019.226074	1377.958740	-188.299744	1870.028320	1075.500610	53.764618	1949.709351	1089.967407	-441.109863	1926.159302	810.634918	59.344410	2136.268677	897.289795	-408.491180	2007.825073	991.556885	-80.752869	2006.477295	978.246887	-319.347504	1839.257935	1040.633301	-189.370331	1815.767944	1326.042603	-181.018265	2049.581299	1231.005249	-208.742477	2001.564331	606.485901	-17.567841	2017.058960	491.408142	-77.213257	1990.614380	266.952362	-36.306522	1964.338379	62.738598	-113.536583	1925.647461	54.303082	-157.796738	2123.450928	28.196760	-133.788651	1996.632812	552.561157	-417.480743	2003.268799	471.832397	-348.225708	1809.691650	341.315552	-366.551666	1676.948364	200.481110	-286.882141	1668.887207	224.977310	-230.404861	1747.997803	66.087463	-306.696777
